<?xml version="1.0" encoding="utf-8"?>
<!-- Generator: Adobe Illustrator 23.1.1, SVG Export Plug-In . SVG Version: 6.00 Build 0)  -->
<svg version="1.1" id="Layer_1" xmlns="http://www.w3.org/2000/svg" xmlns:xlink="http://www.w3.org/1999/xlink" x="0px" y="0px"
	 viewBox="0 0 19.8 5" style="enable-background:new 0 0 19.8 5;" xml:space="preserve">
<style type="text/css">
	.st0{fill:#FFFFFF;}
</style>
<path id="_3dots" class="st0" d="M14.9,2.5C14.9,1.1,16,0,17.3,0s2.5,1.1,2.5,2.5c0,1.4-1.1,2.5-2.5,2.5l0,0C16,5,14.9,3.8,14.9,2.5
	z M7.4,2.5C7.4,1.1,8.5,0,9.9,0s2.5,1.1,2.5,2.5c0,1.4-1.1,2.5-2.5,2.5l0,0C8.5,5,7.4,3.8,7.4,2.5z M0,2.5C0,1.1,1.1,0,2.5,0
	S5,1.1,5,2.5C5,3.8,3.8,5,2.5,5l0,0C1.1,5,0,3.8,0,2.5L0,2.5z"/>
</svg>
