<?xml version="1.0" encoding="utf-8"?>
<!-- Generator: Adobe Illustrator 23.1.1, SVG Export Plug-In . SVG Version: 6.00 Build 0)  -->
<svg version="1.1" id="Layer_1" xmlns="http://www.w3.org/2000/svg" xmlns:xlink="http://www.w3.org/1999/xlink" x="0px" y="0px"
	 viewBox="0 0 11.4 11.4" style="enable-background:new 0 0 11.4 11.4;" xml:space="preserve">
<style type="text/css">
	.st0{fill:#393637;}
</style>
<path id="Icon" class="st0" d="M5,11.3C1.9,11-0.3,8.2,0,5c0.1-1.3,0.7-2.5,1.6-3.4c0.2-0.2,0.5-0.2,0.8,0s0.2,0.5,0,0.8
	C0.6,4.2,0.6,7.2,2.4,9c0.7,0.7,1.7,1.2,2.7,1.3c1.3,0.2,2.6-0.3,3.6-1.1c1.9-1.7,2.1-4.6,0.4-6.6C8.4,1.7,7.3,1.2,6.2,1.1v1.6
	c0,0.3-0.2,0.5-0.5,0.5S5.2,2.9,5.2,2.6l0,0V0.9C5.2,0.4,5.6,0,6.1,0c0,0,0.1,0,0.1,0c3.1,0.3,5.5,3,5.2,6.2
	c-0.3,2.9-2.7,5.2-5.7,5.2C5.5,11.4,5.2,11.4,5,11.3z M4.7,6.1L3,3.2c0,0,0-0.1,0-0.1c0,0,0.1,0,0.1,0l3,1.7C6.5,5,6.8,5.6,6.5,6.1
	c0,0.1-0.1,0.2-0.2,0.3C6.1,6.6,5.9,6.7,5.6,6.7C5.2,6.7,4.8,6.5,4.7,6.1z"/>
</svg>
