<?xml version="1.0" encoding="utf-8"?>
<!-- Generator: Adobe Illustrator 23.1.1, SVG Export Plug-In . SVG Version: 6.00 Build 0)  -->
<svg version="1.1" id="Layer_1" xmlns="http://www.w3.org/2000/svg" xmlns:xlink="http://www.w3.org/1999/xlink" x="0px" y="0px"
	 viewBox="0 0 19.4 16.1" style="enable-background:new 0 0 19.4 16.1;" xml:space="preserve">
<style type="text/css">
	.st0{clip-path:url(#SVGID_2_);}
	.st1{fill-rule:evenodd;clip-rule:evenodd;fill:#FFFFFF;stroke:#FFFFFF;}
</style>
<g>
	<defs>
		<rect id="SVGID_1_" y="0" width="19.4" height="16.1"/>
	</defs>
	<clipPath id="SVGID_2_">
		<use xlink:href="#SVGID_1_"  style="overflow:visible;"/>
	</clipPath>
	<g id="back_arrow_white" class="st0">
		<path id="back_arrow_white-2" class="st1" d="M1,8.7C0.5,8.5,0.4,8,0.6,7.5c0.1-0.2,0.3-0.3,0.5-0.4l0,0l7.6-6.4
			c0.4-0.3,0.9-0.3,1.2,0.1S10.2,1.7,9.8,2l0,0l-6,5H18c0.5,0,0.9,0.4,0.9,0.9S18.5,8.8,18,8.8H3.7L9.9,14c0.4,0.3,0.4,0.9,0.1,1.2
			c-0.3,0.4-0.9,0.4-1.2,0.1l0,0L1.2,9C1.1,8.9,1,8.8,1,8.7z"/>
	</g>
</g>
</svg>
