<?xml version="1.0" encoding="utf-8"?>
<!-- Generator: Adobe Illustrator 23.1.1, SVG Export Plug-In . SVG Version: 6.00 Build 0)  -->
<svg version="1.1" id="capacity_icon" xmlns="http://www.w3.org/2000/svg" xmlns:xlink="http://www.w3.org/1999/xlink" x="0px"
	 y="0px" viewBox="0 0 11.8 13.2" style="enable-background:new 0 0 11.8 13.2;" xml:space="preserve">
<style type="text/css">
	.st0{fill:#393637;}
</style>
<circle id="Ellipse_59" class="st0" cx="5.9" cy="1.4" r="1.4"/>
<path id="Path_291" class="st0" d="M11.1,3.3H0.7C0.3,3.3,0,3.6,0,4l0,0c0,0.4,0.3,0.7,0.7,0.7h3.1c0.2,0.2,0.7,0.2,0.7,0.5v1.3
	l-1.2,5.9c0,0.4,0.3,0.7,0.7,0.7l0,0c0.4,0,0.6-0.3,0.7-0.7l0.9-4.6h0.6l1,4.6c0,0.4,0.3,0.7,0.7,0.7l0,0c0.4,0,0.7-0.3,0.7-0.7
	L7.3,6.6V5.3c0-0.3,0.4-0.5,0.7-0.5h3.1c0.4,0,0.7-0.3,0.7-0.7l0,0C11.8,3.6,11.5,3.3,11.1,3.3z"/>
</svg>
