<?xml version="1.0" encoding="utf-8"?>
<!-- Generator: Adobe Illustrator 23.1.1, SVG Export Plug-In . SVG Version: 6.00 Build 0)  -->
<svg version="1.1" id="Layer_1" xmlns="http://www.w3.org/2000/svg" xmlns:xlink="http://www.w3.org/1999/xlink" x="0px" y="0px"
	 viewBox="0 0 16.2 17.1" style="enable-background:new 0 0 16.2 17.1;" xml:space="preserve">
<style type="text/css">
	.st0{fill:#393637;}
</style>
<path id="Union_101" class="st0" d="M11,14.6c-0.1,0-0.2,0-0.2,0c-0.1,0-0.2-0.2-0.2-0.3c0-0.1,0.1-0.5,0.1-1.2l0.4,0.2
	c0.1,0,0.1,0,0.1-0.1c0-0.1,0-0.1,0-0.2l-0.5-0.2c0.1-0.8,0.2-1.6,0.3-2.3l0.6,0.2c0.1,0,0.1-0.1,0.1-0.1c0-0.1,0-0.1,0-0.2
	l-0.7-0.2c0.1-0.5,0.1-0.8,0.1-0.9c0-0.1,0.3-0.2,0.4-0.2c0.2,0.1,0.7,0.2,0.9,0.3c0.1,0,0.1,0,0.1,0c0.2,0.1,0.7,0.2,0.9,0.3
	c0.1,0.1,0.2,0.3,0.2,0.4c-0.1,0.1-0.6,0.9-1.1,1.9l-0.6-0.2c-0.1,0-0.1,0-0.1,0.1c0,0.1,0,0.1,0,0.2l0.6,0.2
	c-0.6,1.1-1.2,2.1-1.3,2.2C11.1,14.5,11.1,14.6,11,14.6L11,14.6z M6.6,15.1c-0.2,0-0.4-0.2-0.4-0.5c0-0.1,0-0.8,0.1-1.9L7,12.9
	c0.1,0,0.1-0.1,0.2-0.2c0-0.1,0-0.2-0.1-0.3l-0.8-0.2C6.4,11,6.5,9.6,6.6,8.5l1,0.3c0.1,0,0.1-0.1,0.2-0.2c0-0.1,0-0.2-0.1-0.3
	L6.6,8c0-0.8,0.1-1.3,0.1-1.4c0-0.2,0.5-0.4,0.6-0.4c0.3,0.1,1.1,0.3,1.4,0.4l0.2,0c0.4,0.1,1.2,0.3,1.4,0.4
	c0.2,0.1,0.4,0.4,0.4,0.6c-0.1,0.1-0.8,1.6-1.6,3.2l-1-0.3c-0.1,0-0.2,0.1-0.2,0.2c0,0.1-0.1,0.2,0,0.3l0.9,0.3
	c-0.9,1.7-1.7,3.4-1.8,3.6C7.1,15,7.1,15,7,15.1C6.9,15.1,6.7,15.2,6.6,15.1z M12.5,9.1l0.1-2.2L13,7l0,1.2l0.7-0.8L14,7.7l-1.2,1.4
	L12.5,9.1z M3.2,10.5c-0.1,0-0.2,0-0.2,0c-0.1,0-0.2-0.2-0.2-0.3c0-0.1,0.1-0.5,0.2-1.2l0.4,0.2c0.1,0,0.1,0,0.1-0.1
	c0-0.1,0-0.1,0-0.2L2.9,8.7C3,7.9,3.1,7,3.2,6.3l0.6,0.2c0.1,0,0.1-0.1,0.1-0.1c0,0,0-0.1,0-0.2L3.2,6c0.1-0.5,0.1-0.8,0.1-0.9
	c0-0.1,0.3-0.2,0.4-0.2C3.9,5,4.4,5.2,4.7,5.3c0.1,0,0.1,0,0.1,0C5,5.4,5.5,5.6,5.6,5.6C5.8,5.7,5.9,5.9,5.9,6
	c0,0.1-0.6,0.9-1.1,1.9L4.1,7.7C4,7.7,4,7.8,4,7.8C3.9,7.9,3.9,8,4,8l0.6,0.2c-0.6,1.1-1.2,2.1-1.3,2.2C3.3,10.4,3.2,10.4,3.2,10.5
	L3.2,10.5z M8.7,6.2L8.6,2.7l0.7,0.1l0.1,1.9l0.9-1.3L11,3.9L9.2,6.3L8.7,6.2z M4.7,4.9l0.1-2.2l0.5,0.1l0,1.2l0.6-0.8l0.4,0.3
	L5,5.1L4.7,4.9z"/>
</svg>
