<?xml version="1.0" encoding="utf-8"?>
<!-- Generator: Adobe Illustrator 23.1.1, SVG Export Plug-In . SVG Version: 6.00 Build 0)  -->
<svg version="1.1" id="Layer_1" xmlns="http://www.w3.org/2000/svg" xmlns:xlink="http://www.w3.org/1999/xlink" x="0px" y="0px"
	 viewBox="0 0 243 45.5" style="enable-background:new 0 0 243 45.5;" xml:space="preserve">
<style type="text/css">
	.st0{fill:#FFFFFF;}
	.st1{fill:url(#Path_1_);}
	.st2{fill:#393637;}
	.st3{font-family:'SFProDisplay-Medium';}
	.st4{font-size:15px;}
</style>
<g id="join_the_research_-_0" transform="translate(0)">
	<path id="Rectangle_1786" class="st0" d="M16,3.7h214c7.2,0,13,5.8,13,13v12c0,7.2-5.8,13-13,13H16c-7.2,0-13-5.8-13-13v-12
		C3,9.6,8.8,3.7,16,3.7z"/>
	<g id="Group_5834" transform="translate(-41 -446.273)">
		
			<linearGradient id="Path_1_" gradientUnits="userSpaceOnUse" x1="-250.0909" y1="760.2261" x2="-249.7759" y2="759.7371" gradientTransform="matrix(45.458 0 0 -45.458 11425.707 35017.0586)">
			<stop  offset="0" style="stop-color:#FB4069"/>
			<stop  offset="1" style="stop-color:#FC6157"/>
		</linearGradient>
		<path id="Path" class="st1" d="M63.7,446.3C51.2,446.3,41,456.5,41,469c0,12.6,10.2,22.7,22.7,22.7c12.6,0,22.7-10.2,22.7-22.7
			C86.4,456.5,76.3,446.3,63.7,446.3z"/>
		<path id="Union_106" class="st0" d="M54.6,477.9v-2.4h9.5v2.4H54.6z M54.6,473.2v-2.4h19v2.4H54.6z M54.6,468.4v-2.4h19v2.4
			L54.6,468.4z M54.6,463.7v-2.4h19v2.4H54.6z"/>
	</g>
	<text transform="matrix(1 0 0 1 83.017 27.744)" class="st2 st3 st4">Get on with it</text>
</g>
</svg>
