<?xml version="1.0" encoding="utf-8"?>
<!-- Generator: Adobe Illustrator 23.1.1, SVG Export Plug-In . SVG Version: 6.00 Build 0)  -->
<svg version="1.1" id="Layer_1" xmlns="http://www.w3.org/2000/svg" xmlns:xlink="http://www.w3.org/1999/xlink" x="0px" y="0px"
	 viewBox="0 0 11.6 11.6" style="enable-background:new 0 0 11.6 11.6;" xml:space="preserve">
<style type="text/css">
	.st0{fill:#393637;}
</style>
<path id="Union_105" class="st0" d="M6,11.6V6.9c0.5,1.3,1.6,2.3,3,2.6l0-0.3C7.5,8.6,6.5,7.4,6.1,6h5.5v3c0,1.5-1.2,2.6-2.6,2.7H6z
	 M2.7,11.6C1.2,11.6,0,10.4,0,8.9V6h5.5C5.4,7.3,3.8,8.8,2.7,9.1v0.3c1.3-0.3,2.4-1.3,3-2.6v4.7L2.7,11.6z M8,5.6
	c1-0.2,1.7-1.1,1.8-2.1c0.1-0.9-0.6-1.6-1.5-1.7c-0.1,0-0.2,0-0.3,0C6.9,2.1,6.1,3,6,4.1V0h3c1.5,0,2.6,1.2,2.6,2.7v3L8,5.6z M0,5.6
	v-3C0,1.2,1.2,0,2.7,0h3v4.1c-0.4-1.2-1-2.2-2.1-2.2c-0.9,0-1.7,0.7-1.7,1.6c0,0,0,0.1,0,0.1c0,1,0.7,1.9,1.7,2.1L0,5.6z M8,2.3
	c1.1,0,1.3,0.6,1.3,1.4c0,0.6-0.6,1.9-3.1,1.9C6.3,3.9,6.9,2.3,8,2.3z M2.2,3.5c0-0.7,0.5-1.2,1.2-1.3c0,0,0.1,0,0.1,0
	c1,0,1.6,1.2,2,3.3C2.8,5.6,2.2,4.1,2.2,3.5z"/>
</svg>
